<svg xmlns="http://www.w3.org/2000/svg" width="266" height="266" class="undefined"><style>.a{fill:#ccc;}.b{fill:#ccc;font-family:sans-serif;font-size:40px;letter-spacing:0px;line-height:1.25;word-spacing:0px;}.c{-inkscape-font-specification:monospace;fill:#ccc;font-family:monospace;font-size:256px;}.d{fill:#ccc;font-family:sans-serif;font-size:192px;letter-spacing:0px;line-height:1.25;word-spacing:0px;}.e{-inkscape-font-specification:monospace;fill:#ccc;font-family:monospace;font-size:192px;}.f{font-family:sans-serif;letter-spacing:0px;line-height:0%;word-spacing:0px;}.g{-inkscape-font-specification:Consolas;fill:#800080;font-family:Consolas;font-size:300px;line-height:0;}.h{fill:#f0f;}.i{font-family:sans-serif;font-size:40px;letter-spacing:0px;line-height:1.25;word-spacing:0px;}.j{fill:#a84186;font-family:sans-serif;font-size:40px;letter-spacing:0px;line-height:1.25;word-spacing:0px;}.k{-inkscape-font-specification:monospace;fill:#a84186;font-family:monospace;font-size:256px;}.l{fill:#a84186;font-family:sans-serif;font-size:192px;letter-spacing:0px;line-height:1.25;word-spacing:0px;}.m{-inkscape-font-specification:monospace;fill:#a84186;font-family:monospace;font-size:192px;}.n{fill-opacity:0.53333336;fill:#a84186;}</style><g transform="translate(-71.971426 -713.1875)" class="undefined"><g transform="matrix(1.1088107 -0.00961036 0.70536778 0.85557564 -675.58683 134.54896)" class="a"><text transform="matrix(0.9368318 -0.17385867 0.70820721 0.93599731 0 0)" y="898.6" x="-548.2" class="b"><tspan y="898.6" x="-548.2" class="undefined"><tspan y="898.6" x="-548.2" class="c">  H</tspan></tspan></text><text transform="matrix(0.9368318 -0.17385867 0.70820721 0.93599731 0 0)" y="864.2" x="-447.3" class="d"><tspan y="864.2" x="-447.3" class="undefined"><tspan y="864.2" x="-447.3" class="e">  :</tspan></tspan></text><text transform="matrix(0.9368318 -0.17385867 0.70820721 0.93599731 0 0)" y="872.8" x="-395.8" class="d"><tspan y="872.8" x="-395.8" class="undefined"><tspan y="872.8" x="-395.8" class="e">  )</tspan></tspan></text><text transform="matrix(0.9368318 -0.17385867 0.70820721 0.93599731 0 0)" y="871.8" x="-629.4" class="d"><tspan y="871.8" x="-629.4" class="undefined"><tspan y="871.8" x="-629.4" class="e">  (</tspan></tspan></text></g><text x="66.6" y="947.5" class="f"/><text x="76.3" y="1094.7" class="i"><tspan x="76.3" y="1131.1" class="undefined"/></text><text transform="skewY(-10.19254)" y="958" x="112" class="j"><tspan y="958" x="112" class="undefined"><tspan y="958" x="112" class="k">  H</tspan></tspan></text><text transform="skewY(-10.19254)" y="923.6" x="212.9" class="l"><tspan y="923.6" x="212.9" class="undefined"><tspan y="923.6" x="212.9" class="m">  :</tspan></tspan></text><text transform="skewY(-10.19254)" y="932.2" x="264.3" class="l"><tspan y="932.2" x="264.3" class="undefined"><tspan y="932.2" x="264.3" class="m">  )</tspan></tspan></text><text transform="skewY(-10.19254)" y="931.2" x="30.8" class="l"><tspan y="931.2" x="30.8" class="undefined"><tspan y="931.2" x="30.8" class="m">  (</tspan></tspan></text><path d="m71.8 714.1v59L339 722.7v-8.6z" class="n"/><path d="M339.8 979.6V920.6L72.7 971v8.6z" class="n"/></g></svg>